<svg version="1.2" xmlns="http://www.w3.org/2000/svg" viewBox="0 0 60 60" width="60" height="60">
	<title>paper-svg</title>
	<style>
		.s0 { fill: #dce5e3 } 
		.s1 { fill: #c1cfcc } 
		.s2 { fill: #acb9b5 } 
	</style>
	<path id="Layer" class="s0" d="m61 7c0 1.7 0 3.4-0.3 5.3-0.8 0.9-1.4 1.6-1.7 2.5-3.7 12.1-7.3 24.2-11 36.4-1.4 4.5-2.9 5-6.8 2.5-3.7-2.3-7.5-4.4-11.3-6.9-1.9-1.9-3.7-3.6-5.5-5.2 7.6-8.3 15-16.5 21.6-23.8 0.3-0.1-0.8 0.1-1.7 0.7-6.5 4-13 7.9-19.3 12.2-3.2 2.2-6 4.9-9.4 7.2-5.1-3-9.8-6-14.6-8.9 0-0.7 0-1.5 0.3-2.3 1.8-0.9 3.3-2.1 4.9-2.6 10.3-3.6 20.5-7.3 30.8-10.5 7.9-2.5 16-4.4 24-6.6z"/>
	<path id="Layer" class="s1" d="m29.9 46.8c-2.3 1.9-4.7 3.6-7.5 4.7-0.3-1.5-0.4-2.5-0.2-3.4 1.3-6.9 0.6-8-6.3-10 0 0 0-0.1 0-0.1 3.1-2.4 5.9-5.1 9.1-7.3 6.3-4.3 12.8-8.2 19.3-12.2 0.9-0.6 2-0.8 1.7-0.7-6.6 7.3-14 15.5-21.6 23.8 1.8 1.6 3.6 3.3 5.5 5.2z"/>
	<path id="Layer" class="s2" d="m15.9 38.5c6.9 1.6 7.6 2.7 6.3 9.6-0.2 0.9-0.1 1.9-0.2 3.3q-3-5.8-6.1-12.9z"/>
</svg>