<svg version="1.2" xmlns="http://www.w3.org/2000/svg" viewBox="0 0 96 96" width="96" height="96">
	<title>rock-svg</title>
	<style>
		.s0 { fill: #7d7d7d } 
		.s1 { fill: #575757 } 
		.s2 { fill: #a3a3a3 } 
		.s3 { fill: #2e2e2e } 
		.s4 { fill: #404040 } 
		.s5 { fill: #696969 } 
	</style>
	<path id="Layer" class="s0" d="m30.9 27.9c11.1-3.3 22.1-6.6 33.6-9.6-1.9 7.1-4.1 13.9-6.7 20.8-2 1-3.5 1.9-5.2 2.6-5.7 2.7-11.5 5.4-17.4 7.7-1.5-7.5-2.9-14.5-4.3-21.5z"/>
	<path id="Layer" class="s0" d="m84.8 48.9c0 6.2 0 12.4-0.8 18.9-9.3 1.6-17.8 2.9-26.7 4.2-0.5-0.1-0.7-0.1-0.7-0.6 0.8-2.1 1.5-3.8 2.3-5.4 3-5.7 6.1-11.4 9.6-17.1 5.8 0 11.1 0 16.3 0z"/>
	<path id="Layer" class="s1" d="m30.6 28.1c1.7 6.8 3.1 13.8 4.6 21.7-0.7 6.9-1.4 12.9-2.4 19-0.4 0-0.6 0.1-0.9-0.2-6.4-6.1-12.5-11.9-18.7-17.7 2.4-3.2 4.7-6.6 7.1-9.8 3.3-4.3 6.7-8.6 10.3-13z"/>
	<path id="Layer" class="s2" d="m84.9 48.6c-5.3 0.3-10.6 0.3-16.6 0.1-3.8-3.5-7-6.6-10.2-9.8 2.3-6.7 4.5-13.5 6.8-20.6 0.8-0.2 1.9-0.2 2.1 0.2 6.1 9.9 12 19.8 17.9 30.1z"/>
	<path id="Layer" class="s3" d="m32.1 68.9c0.1 0 0.3-0.1 1.1 0 8.2 1 15.7 2 23.2 2.9 0.2 0.1 0.4 0.1 1.1 0.4 4.9 2.6 9.2 5 13.6 7.3-1.9 0.5-3.7 1.4-5.5 1.4-10.9 0.2-21.9 0.3-32.8-0.1-3.2-0.1-6.3-2-9.4-3.6 2.9-3.1 5.8-5.7 8.7-8.3z"/>
	<path id="Layer" class="s4" d="m31.9 68.6c-2.7 2.9-5.6 5.5-8.7 8.3-5.7-1.6-7.7-5.7-8.2-11-0.5-4.7-1.3-9.4-1.8-14.5 6.2 5.3 12.3 11.1 18.7 17.2z"/>
	<path id="Layer" class="s1" d="m71.4 79.5c-4.7-2.3-9-4.7-13.6-7.3 8.4-1.5 16.9-2.8 25.9-4.1q-5.5 5.7-12.3 11.4z"/>
	<path id="Layer" class="s5" d="m56.6 71.4c-7.7-0.5-15.2-1.5-23.1-2.6 0.3-6.1 1-12.1 1.7-18.6 5.9-3.1 11.7-5.8 17.4-8.5 1.7-0.7 3.2-1.6 5.2-2.6 3.5 3 6.7 6.1 10.1 9.5-2.9 6-6 11.7-9 17.4-0.8 1.6-1.5 3.3-2.3 5.4z"/>
</svg>