<svg version="1.2" xmlns="http://www.w3.org/2000/svg" viewBox="0 0 66 66" width="66" height="66">
	<title>scissors-svg</title>
	<style>
		.s0 { fill: #ff6151 } 
		.s1 { fill: #fb4a32 } 
		.s2 { fill: #e4e4e4 } 
		.s3 { fill: #d5d3d4 } 
		.s4 { fill: #e64230 } 
		.s5 { fill: #fb4c34 } 
		.s6 { fill: #c7c6c6 } 
		.s7 { fill: #c8c7c7 } 
		.s8 { fill: #fd503a } 
		.s9 { fill: #d6d4d5 } 
		.s10 { fill: #fc5039 } 
		.s11 { fill: #e8412e } 
	</style>
	<path id="Layer" fill-rule="evenodd" class="s0" d="m54.1 40c0.6 0.4 1.2 0.9 1.8 2 3.3 14.1 0.5 18.8-11 19.1-6.9-1.1-6.8-8-10.6-12.3-0.3-0.4-0.3-0.8 0-0.8 1 0.4 1.7 0.7 1.7 0.7 1.7-3.6 3.4-7.1 5-10.5 3.9 0 7.8 0 12 0.6 0.6 0.8 0.8 1 1.1 1.2zm-6.6 2.4c-2.5 1.2-6.1 1.9-7 3.8-1.1 2.2-2.3 6.4 2.7 8.5 2.8 2.9 6.2 4.7 9.7 1.6 2.6-2.2 3.5-5.8 1-8.8-1.6-1.9-3.9-3.1-6.4-5.1z"/>
	<path id="Layer" fill-rule="evenodd" class="s1" d="m10.9 59c-7.2-7.7-0.5-19.7 7.1-21.3 2.5-0.6 5.5 0.6 8.8 1.4 4.7 6.6 4 12.5-1.1 17.8-4.5 4.7-9.7 2.8-14.8 2.1zm12.1-15c0 0 0 0.1-0.2-0.6-2.9-4-6.2-2.5-8.6 0.1-2.1 2.3-5.4 5-1.3 9.3 1.8 1.7 3.7 5 5.1 4.8 2.5-0.4 5.1-2.6 6.9-4.6 2.2-2.6 1.4-5.5-1.2-8.4-0.2-0.2-0.5-0.4-0.7-0.6z"/>
	<path id="Layer" class="s2" d="m21 6.2c1.5 0.9 3.5 1.4 4.3 2.7 2.9 4.9 5.5 10.1 8.6 15.9 3.1-5.6 5.7-10.8 8.7-15.7 0.8-1.3 2.7-1.9 4.1-2.2-0.6 3.2-5.5 5.8 0.3 8.5-1.3 2.8-2.6 5.2-4.3 7.6-1.3-0.4-2.3-0.8-3.2-1.2-3.3 3.6-3.9 7.6-2.8 12.1-0.8 0-1.3 0-1.7-0.4-0.9-2-1.6-3.6-2.5-5.3q-5.7-11-11.5-22z"/>
	<path id="Layer" class="s3" d="m20.8 6.1c4.1 7.4 7.9 14.8 11.7 22.1 0.9 1.7 1.6 3.3 2.2 5.4-1 1.2-1.8 1.8-2.9 2.4-1-0.8-1.9-1.4-2.3-2.2-3.9-7.6-7.8-15.2-11.6-22.8 0.4-0.8 0.7-1.6 1.3-2.8 0.6-0.7 0.7-1 0.8-1.3 0.1-0.3 0.3-0.6 0.8-0.8z"/>
	<path id="Layer" class="s4" d="m11.1 59.4c4.9 0.3 10.1 2.2 14.6-2.5 5.1-5.3 5.8-11.2 1.4-17.7 0-0.9 0.2-1.5 0.9-2.1 1 0.4 1.5 0.7 2.1 1.4 1.3 3.4 2.6 6.4 3.9 9.5 0 0 0 0.4 0 0.6-1.3 2.2-2.8 4.1-3.9 6.3-4 7.5-11.7 9.6-19 4.5z"/>
	<path id="Layer" class="s5" d="m34.3 48c-1.6-3.1-2.9-6.1-4-9.6 0.8-1.1 1.3-1.7 1.8-2.4 0.8-0.6 1.6-1.2 2.6-2 0.7-0.1 1.2-0.1 2.2 0 1.1 0.4 1.6 0.8 2.1 1.4 0.4 0.4 0.7 0.6 1 0.8 0.1 0.6 0.3 1.1 0.7 1.8-1.3 3.6-3 7.1-4.7 10.7 0 0-0.7-0.3-1.7-0.7z"/>
	<path id="Layer" class="s6" d="m40.3 36c-0.6 0-0.9-0.2-1.2-1 1.3-4.4 2.6-8.1 4-11.9 1.3-2.5 2.6-4.9 4.2-7.8 1.2-1.7 2-3 2.8-4.3-0.4 3.1-0.2 6.5-1.4 9.4-2.2 5.3-5.3 10.3-8.4 15.6z"/>
	<path id="Layer" class="s7" d="m31.8 36c-0.2 0.7-0.7 1.3-1.5 2-0.8-0.2-1.3-0.5-2-1-3.7-6.9-7.1-13.6-10.3-20.5-0.7-1.5-0.6-3.4-0.4-5.3 4.1 7.4 8 15 11.9 22.6 0.4 0.8 1.3 1.4 2.3 2.2z"/>
	<path id="Layer" class="s8" d="m45.1 61.4c11.3-0.6 14.1-5.3 10.9-19.1 4.9 4.8 5.6 11 1.6 16.4-3.2 4.4-7.8 3.4-12.5 2.7z"/>
	<path id="Layer" class="s9" d="m50 10.6c-0.7 1.7-1.5 3-2.6 4.3-6.2-2.2-1.3-4.8-0.5-7.7 0.2-0.3 0.6-0.2 1 0.1 0.5 0.4 0.7 0.6 0.9 0.7 0.4 0.8 0.8 1.5 1.2 2.6z"/>
	<path id="Layer" class="s6" d="m48.9 7.7c-0.3 0.2-0.5 0-0.8-0.3 0.2-0.1 0.5 0 0.8 0.3z"/>
	<path id="Layer" class="s8" d="m54 39.7q-0.3 0.1-0.8-0.6 0.2-0.1 0.8 0.6z"/>
	<path id="Layer" class="s7" d="m19.7 7c0.2 0.2 0.1 0.5-0.3 0.8-0.1-0.1 0-0.4 0.3-0.8z"/>
	<path id="Layer" class="s10" d="m47.7 42.6c-3.9 2.4-7.5 5-4.9 11-4.6-1-3.4-5.2-2.3-7.4 0.9-1.9 4.5-2.6 7.2-3.6z"/>
	<path id="Layer" class="s11" d="m22.9 43.7c-5.3-1.2-9.1 1.5-10 7.9-4.1-3.1-0.8-5.8 1.3-8.1 2.4-2.6 5.7-4.1 8.7 0.2z"/>
	<path id="Layer" class="s11" d="m23.8 44.9q-0.2 0-0.8-0.6 0.3-0.1 0.8 0.6z"/>
	<path id="Layer" class="s9" d="m42.7 23c-1 3.9-2.3 7.6-3.7 11.7-0.5 0.1-1-0.3-1.7-0.7-1.7-4.6-1.1-8.6 2.2-12.2 0.9 0.4 1.9 0.8 3.2 1.2z"/>
</svg>